<mxfile host="app.diagrams.net" agent="Mozilla/5.0 (Windows NT 10.0; Win64; x64; rv:139.0) Gecko/20100101 Firefox/139.0" version="27.1.6" pages="2">
  <diagram name="Page-1" id="5jGwGDbIFmNdDlQWIyDG">
    <mxGraphModel dx="1572" dy="942" grid="1" gridSize="10" guides="1" tooltips="1" connect="1" arrows="1" fold="1" page="1" pageScale="1" pageWidth="3300" pageHeight="4681" math="0" shadow="0">
      <root>
        <mxCell id="0" />
        <mxCell id="1" parent="0" />
        <mxCell id="bAS_3HDvZGofkfSJnZUk-4" style="edgeStyle=orthogonalEdgeStyle;rounded=0;orthogonalLoop=1;jettySize=auto;html=1;exitX=1;exitY=0.5;exitDx=0;exitDy=0;entryX=0;entryY=0.5;entryDx=0;entryDy=0;" parent="1" source="bAS_3HDvZGofkfSJnZUk-2" target="bAS_3HDvZGofkfSJnZUk-3" edge="1">
          <mxGeometry relative="1" as="geometry" />
        </mxCell>
        <mxCell id="bAS_3HDvZGofkfSJnZUk-2" value="data&#xa;Osteoarthritis Data" style="rectangle;fillColor=#fff2cc;strokeColor=#d6b656;" parent="1" name="data" vertex="1">
          <mxGeometry x="540" y="270" width="100" height="50" as="geometry" />
        </mxCell>
        <mxCell id="bAS_3HDvZGofkfSJnZUk-6" style="edgeStyle=orthogonalEdgeStyle;rounded=0;orthogonalLoop=1;jettySize=auto;html=1;exitX=1;exitY=0.5;exitDx=0;exitDy=0;entryX=0.5;entryY=0;entryDx=0;entryDy=0;" parent="1" source="bAS_3HDvZGofkfSJnZUk-3" target="bAS_3HDvZGofkfSJnZUk-5" edge="1">
          <mxGeometry relative="1" as="geometry" />
        </mxCell>
        <mxCell id="bAS_3HDvZGofkfSJnZUk-3" value="transform" style="rounded=1;whiteSpace=wrap;html=1;arcSize=50;fillColor=#f8cecc;strokeColor=#b85450;" parent="1" name="transform" vertex="1">
          <mxGeometry x="720" y="270" width="100" height="50" as="geometry" />
        </mxCell>
        <mxCell id="bAS_3HDvZGofkfSJnZUk-8" style="edgeStyle=orthogonalEdgeStyle;rounded=0;orthogonalLoop=1;jettySize=auto;html=1;exitX=0;exitY=0.5;exitDx=0;exitDy=0;entryX=0.5;entryY=0;entryDx=0;entryDy=0;" parent="1" source="bAS_3HDvZGofkfSJnZUk-5" target="bAS_3HDvZGofkfSJnZUk-7" edge="1">
          <mxGeometry relative="1" as="geometry" />
        </mxCell>
        <mxCell id="bAS_3HDvZGofkfSJnZUk-28" style="edgeStyle=orthogonalEdgeStyle;rounded=0;orthogonalLoop=1;jettySize=auto;html=1;exitX=1;exitY=0.5;exitDx=0;exitDy=0;entryX=0.5;entryY=0;entryDx=0;entryDy=0;" parent="1" source="bAS_3HDvZGofkfSJnZUk-5" target="bAS_3HDvZGofkfSJnZUk-27" edge="1">
          <mxGeometry relative="1" as="geometry" />
        </mxCell>
        <mxCell id="bAS_3HDvZGofkfSJnZUk-5" value="data&#xa;Extracted Features" style="rectangle;fillColor=#fff2cc;strokeColor=#d6b656;" parent="1" name="data" vertex="1">
          <mxGeometry x="850" y="370" width="100" height="50" as="geometry" />
        </mxCell>
        <mxCell id="bAS_3HDvZGofkfSJnZUk-23" style="edgeStyle=orthogonalEdgeStyle;rounded=0;orthogonalLoop=1;jettySize=auto;html=1;exitX=0.5;exitY=1;exitDx=0;exitDy=0;entryX=0.5;entryY=0;entryDx=0;entryDy=0;" parent="1" source="bAS_3HDvZGofkfSJnZUk-7" target="bAS_3HDvZGofkfSJnZUk-22" edge="1">
          <mxGeometry relative="1" as="geometry" />
        </mxCell>
        <mxCell id="bAS_3HDvZGofkfSJnZUk-42" style="edgeStyle=orthogonalEdgeStyle;rounded=0;orthogonalLoop=1;jettySize=auto;html=1;exitX=0;exitY=0.5;exitDx=0;exitDy=0;entryX=1;entryY=0.5;entryDx=0;entryDy=0;" parent="1" source="bAS_3HDvZGofkfSJnZUk-7" target="bAS_3HDvZGofkfSJnZUk-9" edge="1">
          <mxGeometry relative="1" as="geometry" />
        </mxCell>
        <mxCell id="bAS_3HDvZGofkfSJnZUk-7" value="infer:deduce" style="rounded=1;whiteSpace=wrap;html=1;arcSize=50;fillColor=#bac8d3;strokeColor=#23445d;" parent="1" name="infer:deduce" vertex="1">
          <mxGeometry x="720" y="470" width="100" height="50" as="geometry" />
        </mxCell>
        <mxCell id="bAS_3HDvZGofkfSJnZUk-9" value="model:semantic&#xa;FIS 1" style="shape=hexagon;perimeter=hexagonPerimeter2;fillColor=#b0e3e6;strokeColor=#0e8088;" parent="1" name="model" vertex="1">
          <mxGeometry x="530" y="470" width="120" height="50" as="geometry" />
        </mxCell>
        <mxCell id="bAS_3HDvZGofkfSJnZUk-11" style="edgeStyle=orthogonalEdgeStyle;rounded=0;orthogonalLoop=1;jettySize=auto;html=1;exitX=1;exitY=0.5;exitDx=0;exitDy=0;entryX=0;entryY=0.5;entryDx=0;entryDy=0;" parent="1" source="bAS_3HDvZGofkfSJnZUk-12" target="bAS_3HDvZGofkfSJnZUk-14" edge="1">
          <mxGeometry relative="1" as="geometry" />
        </mxCell>
        <mxCell id="bAS_3HDvZGofkfSJnZUk-12" value="actor&#xa;Expert" style="triangle;fillColor=#ffe6cc;strokeColor=#d79b00;" parent="1" name="actor" vertex="1">
          <mxGeometry x="220" y="600" width="100" height="50" as="geometry" />
        </mxCell>
        <mxCell id="bAS_3HDvZGofkfSJnZUk-18" style="edgeStyle=orthogonalEdgeStyle;rounded=0;orthogonalLoop=1;jettySize=auto;html=1;exitX=0.5;exitY=1;exitDx=0;exitDy=0;entryX=0;entryY=0.5;entryDx=0;entryDy=0;" parent="1" source="bAS_3HDvZGofkfSJnZUk-14" target="bAS_3HDvZGofkfSJnZUk-15" edge="1">
          <mxGeometry relative="1" as="geometry" />
        </mxCell>
        <mxCell id="bAS_3HDvZGofkfSJnZUk-14" value="generate:engineer" style="rounded=1;whiteSpace=wrap;html=1;arcSize=50;fillColor=#e1d5e7;strokeColor=#9673a6;" parent="1" name="generate:engineer" vertex="1">
          <mxGeometry x="400" y="600" width="100" height="50" as="geometry" />
        </mxCell>
        <mxCell id="bAS_3HDvZGofkfSJnZUk-21" style="edgeStyle=orthogonalEdgeStyle;rounded=0;orthogonalLoop=1;jettySize=auto;html=1;exitX=1;exitY=0.5;exitDx=0;exitDy=0;entryX=0;entryY=0.5;entryDx=0;entryDy=0;" parent="1" source="bAS_3HDvZGofkfSJnZUk-15" target="bAS_3HDvZGofkfSJnZUk-20" edge="1">
          <mxGeometry relative="1" as="geometry" />
        </mxCell>
        <mxCell id="bAS_3HDvZGofkfSJnZUk-15" value="model:semantic&#xa;FIS 2" style="shape=hexagon;perimeter=hexagonPerimeter2;fillColor=#b0e3e6;strokeColor=#0e8088;" parent="1" name="model" vertex="1">
          <mxGeometry x="530" y="730" width="120" height="50" as="geometry" />
        </mxCell>
        <mxCell id="bAS_3HDvZGofkfSJnZUk-19" value="&lt;div&gt;error&lt;/div&gt;&lt;div&gt;&amp;nbsp; --&lt;/div&gt;&lt;div&gt;|&lt;/div&gt;&lt;div&gt;v&lt;/div&gt;" style="text;html=1;align=center;verticalAlign=middle;whiteSpace=wrap;rounded=0;dashed=1;fillColor=#f5f5f5;fontColor=#333333;strokeColor=#666666;strokeWidth=2;" parent="1" name="text" vertex="1">
          <mxGeometry x="450" y="470" width="80" height="130" as="geometry" />
        </mxCell>
        <mxCell id="bAS_3HDvZGofkfSJnZUk-26" style="edgeStyle=orthogonalEdgeStyle;rounded=0;orthogonalLoop=1;jettySize=auto;html=1;exitX=1;exitY=0.5;exitDx=0;exitDy=0;entryX=0.5;entryY=1;entryDx=0;entryDy=0;" parent="1" source="bAS_3HDvZGofkfSJnZUk-20" target="bAS_3HDvZGofkfSJnZUk-25" edge="1">
          <mxGeometry relative="1" as="geometry" />
        </mxCell>
        <mxCell id="bAS_3HDvZGofkfSJnZUk-20" value="infer:deduce" style="rounded=1;whiteSpace=wrap;html=1;arcSize=50;fillColor=#bac8d3;strokeColor=#23445d;" parent="1" name="infer:deduce" vertex="1">
          <mxGeometry x="720" y="730" width="100" height="50" as="geometry" />
        </mxCell>
        <mxCell id="bAS_3HDvZGofkfSJnZUk-24" style="edgeStyle=orthogonalEdgeStyle;rounded=0;orthogonalLoop=1;jettySize=auto;html=1;exitX=0.5;exitY=1;exitDx=0;exitDy=0;entryX=0.5;entryY=0;entryDx=0;entryDy=0;" parent="1" source="bAS_3HDvZGofkfSJnZUk-22" target="bAS_3HDvZGofkfSJnZUk-20" edge="1">
          <mxGeometry relative="1" as="geometry" />
        </mxCell>
        <mxCell id="bAS_3HDvZGofkfSJnZUk-22" value="symbol&#xa;Importance Score" style="rectangle;fillColor=#dae8fc;strokeColor=#6c8ebf;" parent="1" name="symbol" vertex="1">
          <mxGeometry x="720" y="600" width="100" height="50" as="geometry" />
        </mxCell>
        <mxCell id="bAS_3HDvZGofkfSJnZUk-29" style="edgeStyle=orthogonalEdgeStyle;rounded=0;orthogonalLoop=1;jettySize=auto;html=1;exitX=0.5;exitY=0;exitDx=0;exitDy=0;entryX=0.5;entryY=1;entryDx=0;entryDy=0;" parent="1" source="bAS_3HDvZGofkfSJnZUk-25" target="bAS_3HDvZGofkfSJnZUk-27" edge="1">
          <mxGeometry relative="1" as="geometry" />
        </mxCell>
        <mxCell id="bAS_3HDvZGofkfSJnZUk-25" value="symbol&#xa;Overall Importance" style="rectangle;fillColor=#dae8fc;strokeColor=#6c8ebf;" parent="1" name="symbol" vertex="1">
          <mxGeometry x="980" y="600" width="100" height="50" as="geometry" />
        </mxCell>
        <mxCell id="bAS_3HDvZGofkfSJnZUk-31" style="edgeStyle=orthogonalEdgeStyle;rounded=0;orthogonalLoop=1;jettySize=auto;html=1;exitX=1;exitY=0.5;exitDx=0;exitDy=0;entryX=0;entryY=0.5;entryDx=0;entryDy=0;" parent="1" source="bAS_3HDvZGofkfSJnZUk-27" target="bAS_3HDvZGofkfSJnZUk-30" edge="1">
          <mxGeometry relative="1" as="geometry" />
        </mxCell>
        <mxCell id="bAS_3HDvZGofkfSJnZUk-27" value="generate:train" style="rounded=1;whiteSpace=wrap;html=1;arcSize=50;fillColor=#e1d5e7;strokeColor=#9673a6;" parent="1" name="generate:train" vertex="1">
          <mxGeometry x="980" y="470" width="100" height="50" as="geometry" />
        </mxCell>
        <mxCell id="bAS_3HDvZGofkfSJnZUk-34" style="edgeStyle=orthogonalEdgeStyle;rounded=0;orthogonalLoop=1;jettySize=auto;html=1;exitX=1;exitY=0.5;exitDx=0;exitDy=0;entryX=0;entryY=0.5;entryDx=0;entryDy=0;" parent="1" source="bAS_3HDvZGofkfSJnZUk-30" target="bAS_3HDvZGofkfSJnZUk-33" edge="1">
          <mxGeometry relative="1" as="geometry" />
        </mxCell>
        <mxCell id="bAS_3HDvZGofkfSJnZUk-30" value="model:statistical&#xa;Predication Model" style="shape=hexagon;perimeter=hexagonPerimeter2;fillColor=#b0e3e6;strokeColor=#0e8088;" parent="1" name="model" vertex="1">
          <mxGeometry x="1160" y="470" width="120" height="50" as="geometry" />
        </mxCell>
        <mxCell id="bAS_3HDvZGofkfSJnZUk-38" style="edgeStyle=orthogonalEdgeStyle;rounded=0;orthogonalLoop=1;jettySize=auto;html=1;exitX=1;exitY=0.5;exitDx=0;exitDy=0;entryX=0;entryY=0.5;entryDx=0;entryDy=0;" parent="1" source="bAS_3HDvZGofkfSJnZUk-33" target="bAS_3HDvZGofkfSJnZUk-37" edge="1">
          <mxGeometry relative="1" as="geometry" />
        </mxCell>
        <mxCell id="bAS_3HDvZGofkfSJnZUk-33" value="infer:predict" style="rounded=1;whiteSpace=wrap;html=1;arcSize=50;fillColor=#bac8d3;strokeColor=#23445d;" parent="1" name="infer:deduce" vertex="1">
          <mxGeometry x="1360" y="470" width="100" height="50" as="geometry" />
        </mxCell>
        <mxCell id="bAS_3HDvZGofkfSJnZUk-36" style="edgeStyle=orthogonalEdgeStyle;rounded=0;orthogonalLoop=1;jettySize=auto;html=1;entryX=0.5;entryY=1;entryDx=0;entryDy=0;" parent="1" source="bAS_3HDvZGofkfSJnZUk-35" target="bAS_3HDvZGofkfSJnZUk-33" edge="1">
          <mxGeometry relative="1" as="geometry" />
        </mxCell>
        <mxCell id="bAS_3HDvZGofkfSJnZUk-35" value="data&#xa;Patient Data" style="rectangle;fillColor=#fff2cc;strokeColor=#d6b656;" parent="1" name="data" vertex="1">
          <mxGeometry x="1360" y="600" width="100" height="50" as="geometry" />
        </mxCell>
        <mxCell id="bAS_3HDvZGofkfSJnZUk-37" value="symbol&#xa;Likelihood KOA +&#xa;Certainty" style="rectangle;fillColor=#dae8fc;strokeColor=#6c8ebf;" parent="1" name="symbol" vertex="1">
          <mxGeometry x="1540" y="470" width="100" height="50" as="geometry" />
        </mxCell>
      </root>
    </mxGraphModel>
  </diagram>
  <diagram name="Copy of Page-1" id="dlaTbl82kOuopzNczjID">
    <mxGraphModel dx="1123" dy="673" grid="1" gridSize="10" guides="1" tooltips="1" connect="1" arrows="1" fold="1" page="1" pageScale="1" pageWidth="3300" pageHeight="4681" math="0" shadow="0">
      <root>
        <mxCell id="TZSP8b-ihVTqNLgEtOzy-0" />
        <mxCell id="TZSP8b-ihVTqNLgEtOzy-1" parent="TZSP8b-ihVTqNLgEtOzy-0" />
        <mxCell id="TZSP8b-ihVTqNLgEtOzy-2" value="&lt;div&gt;&lt;br&gt;&lt;/div&gt;&lt;div&gt;&lt;br&gt;&lt;/div&gt;" style="edgeStyle=orthogonalEdgeStyle;rounded=0;orthogonalLoop=1;jettySize=auto;html=1;exitX=1;exitY=0.5;exitDx=0;exitDy=0;entryX=0;entryY=0.5;entryDx=0;entryDy=0;" edge="1" parent="TZSP8b-ihVTqNLgEtOzy-1" source="TZSP8b-ihVTqNLgEtOzy-3" target="TZSP8b-ihVTqNLgEtOzy-5">
          <mxGeometry relative="1" as="geometry" />
        </mxCell>
        <mxCell id="TZSP8b-ihVTqNLgEtOzy-3" value="data&#xa;Osteoarthritis Data" style="rectangle;fillColor=#fff2cc;strokeColor=#d6b656;" name="data" vertex="1" parent="TZSP8b-ihVTqNLgEtOzy-1">
          <mxGeometry x="540" y="270" width="100" height="50" as="geometry" />
        </mxCell>
        <mxCell id="TZSP8b-ihVTqNLgEtOzy-4" style="edgeStyle=orthogonalEdgeStyle;rounded=0;orthogonalLoop=1;jettySize=auto;html=1;exitX=1;exitY=0.5;exitDx=0;exitDy=0;entryX=0.5;entryY=0;entryDx=0;entryDy=0;" edge="1" parent="TZSP8b-ihVTqNLgEtOzy-1" source="TZSP8b-ihVTqNLgEtOzy-5" target="TZSP8b-ihVTqNLgEtOzy-8">
          <mxGeometry relative="1" as="geometry" />
        </mxCell>
        <mxCell id="TZSP8b-ihVTqNLgEtOzy-5" value="transform" style="rounded=1;whiteSpace=wrap;html=1;arcSize=50;fillColor=#f8cecc;strokeColor=#b85450;" name="transform" vertex="1" parent="TZSP8b-ihVTqNLgEtOzy-1">
          <mxGeometry x="720" y="270" width="100" height="50" as="geometry" />
        </mxCell>
        <mxCell id="TZSP8b-ihVTqNLgEtOzy-6" style="edgeStyle=orthogonalEdgeStyle;rounded=0;orthogonalLoop=1;jettySize=auto;html=1;exitX=0;exitY=0.5;exitDx=0;exitDy=0;entryX=0.5;entryY=0;entryDx=0;entryDy=0;" edge="1" parent="TZSP8b-ihVTqNLgEtOzy-1" source="TZSP8b-ihVTqNLgEtOzy-8" target="TZSP8b-ihVTqNLgEtOzy-11">
          <mxGeometry relative="1" as="geometry" />
        </mxCell>
        <mxCell id="TZSP8b-ihVTqNLgEtOzy-7" style="edgeStyle=orthogonalEdgeStyle;rounded=0;orthogonalLoop=1;jettySize=auto;html=1;exitX=1;exitY=0.5;exitDx=0;exitDy=0;entryX=0.5;entryY=0;entryDx=0;entryDy=0;" edge="1" parent="TZSP8b-ihVTqNLgEtOzy-1" source="TZSP8b-ihVTqNLgEtOzy-8" target="TZSP8b-ihVTqNLgEtOzy-27">
          <mxGeometry relative="1" as="geometry" />
        </mxCell>
        <mxCell id="TZSP8b-ihVTqNLgEtOzy-8" value="data&#xa;Extracted Features" style="rectangle;fillColor=#fff2cc;strokeColor=#d6b656;" name="data" vertex="1" parent="TZSP8b-ihVTqNLgEtOzy-1">
          <mxGeometry x="850" y="370" width="100" height="50" as="geometry" />
        </mxCell>
        <mxCell id="TZSP8b-ihVTqNLgEtOzy-9" style="edgeStyle=orthogonalEdgeStyle;rounded=0;orthogonalLoop=1;jettySize=auto;html=1;exitX=0.5;exitY=1;exitDx=0;exitDy=0;entryX=0.5;entryY=0;entryDx=0;entryDy=0;" edge="1" parent="TZSP8b-ihVTqNLgEtOzy-1" source="TZSP8b-ihVTqNLgEtOzy-11" target="TZSP8b-ihVTqNLgEtOzy-23">
          <mxGeometry relative="1" as="geometry" />
        </mxCell>
        <mxCell id="TZSP8b-ihVTqNLgEtOzy-10" style="edgeStyle=orthogonalEdgeStyle;rounded=0;orthogonalLoop=1;jettySize=auto;html=1;exitX=0;exitY=0.5;exitDx=0;exitDy=0;entryX=1;entryY=0.5;entryDx=0;entryDy=0;" edge="1" parent="TZSP8b-ihVTqNLgEtOzy-1" source="TZSP8b-ihVTqNLgEtOzy-11" target="TZSP8b-ihVTqNLgEtOzy-12">
          <mxGeometry relative="1" as="geometry" />
        </mxCell>
        <mxCell id="TZSP8b-ihVTqNLgEtOzy-11" value="infer:deduce" style="rounded=1;whiteSpace=wrap;html=1;arcSize=50;fillColor=#bac8d3;strokeColor=#23445d;" name="infer:deduce" vertex="1" parent="TZSP8b-ihVTqNLgEtOzy-1">
          <mxGeometry x="720" y="470" width="100" height="50" as="geometry" />
        </mxCell>
        <mxCell id="TZSP8b-ihVTqNLgEtOzy-12" value="model:semantic&#xa;FIS 1" style="shape=hexagon;perimeter=hexagonPerimeter2;fillColor=#b0e3e6;strokeColor=#0e8088;" name="model" vertex="1" parent="TZSP8b-ihVTqNLgEtOzy-1">
          <mxGeometry x="530" y="470" width="120" height="50" as="geometry" />
        </mxCell>
        <mxCell id="TZSP8b-ihVTqNLgEtOzy-13" style="edgeStyle=orthogonalEdgeStyle;rounded=0;orthogonalLoop=1;jettySize=auto;html=1;exitX=1;exitY=0.5;exitDx=0;exitDy=0;entryX=0;entryY=0.5;entryDx=0;entryDy=0;" edge="1" parent="TZSP8b-ihVTqNLgEtOzy-1" source="TZSP8b-ihVTqNLgEtOzy-14" target="TZSP8b-ihVTqNLgEtOzy-16">
          <mxGeometry relative="1" as="geometry" />
        </mxCell>
        <mxCell id="TZSP8b-ihVTqNLgEtOzy-14" value="actor&#xa;Expert" style="triangle;fillColor=#ffe6cc;strokeColor=#d79b00;" name="actor" vertex="1" parent="TZSP8b-ihVTqNLgEtOzy-1">
          <mxGeometry x="220" y="600" width="100" height="50" as="geometry" />
        </mxCell>
        <mxCell id="TZSP8b-ihVTqNLgEtOzy-15" style="edgeStyle=orthogonalEdgeStyle;rounded=0;orthogonalLoop=1;jettySize=auto;html=1;exitX=0.5;exitY=1;exitDx=0;exitDy=0;entryX=0;entryY=0.5;entryDx=0;entryDy=0;" edge="1" parent="TZSP8b-ihVTqNLgEtOzy-1" source="TZSP8b-ihVTqNLgEtOzy-16" target="TZSP8b-ihVTqNLgEtOzy-18">
          <mxGeometry relative="1" as="geometry" />
        </mxCell>
        <mxCell id="TZSP8b-ihVTqNLgEtOzy-16" value="generate:engineer" style="rounded=1;whiteSpace=wrap;html=1;arcSize=50;fillColor=#e1d5e7;strokeColor=#9673a6;" name="generate:engineer" vertex="1" parent="TZSP8b-ihVTqNLgEtOzy-1">
          <mxGeometry x="400" y="600" width="100" height="50" as="geometry" />
        </mxCell>
        <mxCell id="TZSP8b-ihVTqNLgEtOzy-17" style="edgeStyle=orthogonalEdgeStyle;rounded=0;orthogonalLoop=1;jettySize=auto;html=1;exitX=1;exitY=0.5;exitDx=0;exitDy=0;entryX=0;entryY=0.5;entryDx=0;entryDy=0;" edge="1" parent="TZSP8b-ihVTqNLgEtOzy-1" source="TZSP8b-ihVTqNLgEtOzy-18" target="TZSP8b-ihVTqNLgEtOzy-21">
          <mxGeometry relative="1" as="geometry" />
        </mxCell>
        <mxCell id="TZSP8b-ihVTqNLgEtOzy-18" value="model:semantic&#xa;FIS 2" style="shape=hexagon;perimeter=hexagonPerimeter2;fillColor=#b0e3e6;strokeColor=#0e8088;" name="model" vertex="1" parent="TZSP8b-ihVTqNLgEtOzy-1">
          <mxGeometry x="530" y="730" width="120" height="50" as="geometry" />
        </mxCell>
        <mxCell id="TZSP8b-ihVTqNLgEtOzy-20" style="edgeStyle=orthogonalEdgeStyle;rounded=0;orthogonalLoop=1;jettySize=auto;html=1;exitX=1;exitY=0.5;exitDx=0;exitDy=0;entryX=0.5;entryY=1;entryDx=0;entryDy=0;" edge="1" parent="TZSP8b-ihVTqNLgEtOzy-1" source="TZSP8b-ihVTqNLgEtOzy-21" target="TZSP8b-ihVTqNLgEtOzy-25">
          <mxGeometry relative="1" as="geometry" />
        </mxCell>
        <mxCell id="TZSP8b-ihVTqNLgEtOzy-21" value="infer:deduce" style="rounded=1;whiteSpace=wrap;html=1;arcSize=50;fillColor=#bac8d3;strokeColor=#23445d;" name="infer:deduce" vertex="1" parent="TZSP8b-ihVTqNLgEtOzy-1">
          <mxGeometry x="720" y="730" width="100" height="50" as="geometry" />
        </mxCell>
        <mxCell id="TZSP8b-ihVTqNLgEtOzy-22" style="edgeStyle=orthogonalEdgeStyle;rounded=0;orthogonalLoop=1;jettySize=auto;html=1;exitX=0.5;exitY=1;exitDx=0;exitDy=0;entryX=0.5;entryY=0;entryDx=0;entryDy=0;" edge="1" parent="TZSP8b-ihVTqNLgEtOzy-1" source="TZSP8b-ihVTqNLgEtOzy-23" target="TZSP8b-ihVTqNLgEtOzy-21">
          <mxGeometry relative="1" as="geometry" />
        </mxCell>
        <mxCell id="TZSP8b-ihVTqNLgEtOzy-23" value="symbol&#xa;Importance Score" style="rectangle;fillColor=#dae8fc;strokeColor=#6c8ebf;" name="symbol" vertex="1" parent="TZSP8b-ihVTqNLgEtOzy-1">
          <mxGeometry x="720" y="600" width="100" height="50" as="geometry" />
        </mxCell>
        <mxCell id="TZSP8b-ihVTqNLgEtOzy-24" style="edgeStyle=orthogonalEdgeStyle;rounded=0;orthogonalLoop=1;jettySize=auto;html=1;exitX=0.5;exitY=0;exitDx=0;exitDy=0;entryX=0.5;entryY=1;entryDx=0;entryDy=0;" edge="1" parent="TZSP8b-ihVTqNLgEtOzy-1" source="TZSP8b-ihVTqNLgEtOzy-25" target="TZSP8b-ihVTqNLgEtOzy-27">
          <mxGeometry relative="1" as="geometry" />
        </mxCell>
        <mxCell id="TZSP8b-ihVTqNLgEtOzy-25" value="symbol&#xa;Overall Importance" style="rectangle;fillColor=#dae8fc;strokeColor=#6c8ebf;" name="symbol" vertex="1" parent="TZSP8b-ihVTqNLgEtOzy-1">
          <mxGeometry x="980" y="600" width="100" height="50" as="geometry" />
        </mxCell>
        <mxCell id="TZSP8b-ihVTqNLgEtOzy-26" style="edgeStyle=orthogonalEdgeStyle;rounded=0;orthogonalLoop=1;jettySize=auto;html=1;exitX=1;exitY=0.5;exitDx=0;exitDy=0;entryX=0;entryY=0.5;entryDx=0;entryDy=0;" edge="1" parent="TZSP8b-ihVTqNLgEtOzy-1" source="TZSP8b-ihVTqNLgEtOzy-27" target="TZSP8b-ihVTqNLgEtOzy-29">
          <mxGeometry relative="1" as="geometry" />
        </mxCell>
        <mxCell id="TZSP8b-ihVTqNLgEtOzy-27" value="generate:train" style="rounded=1;whiteSpace=wrap;html=1;arcSize=50;fillColor=#e1d5e7;strokeColor=#9673a6;" name="generate:train" vertex="1" parent="TZSP8b-ihVTqNLgEtOzy-1">
          <mxGeometry x="980" y="470" width="100" height="50" as="geometry" />
        </mxCell>
        <mxCell id="TZSP8b-ihVTqNLgEtOzy-28" style="edgeStyle=orthogonalEdgeStyle;rounded=0;orthogonalLoop=1;jettySize=auto;html=1;exitX=1;exitY=0.5;exitDx=0;exitDy=0;entryX=0;entryY=0.5;entryDx=0;entryDy=0;" edge="1" parent="TZSP8b-ihVTqNLgEtOzy-1" source="TZSP8b-ihVTqNLgEtOzy-29" target="TZSP8b-ihVTqNLgEtOzy-31">
          <mxGeometry relative="1" as="geometry" />
        </mxCell>
        <mxCell id="TZSP8b-ihVTqNLgEtOzy-29" value="model:statistical&#xa;Predication Model" style="shape=hexagon;perimeter=hexagonPerimeter2;fillColor=#b0e3e6;strokeColor=#0e8088;" name="model" vertex="1" parent="TZSP8b-ihVTqNLgEtOzy-1">
          <mxGeometry x="1160" y="470" width="120" height="50" as="geometry" />
        </mxCell>
        <mxCell id="TZSP8b-ihVTqNLgEtOzy-30" style="edgeStyle=orthogonalEdgeStyle;rounded=0;orthogonalLoop=1;jettySize=auto;html=1;exitX=1;exitY=0.5;exitDx=0;exitDy=0;entryX=0;entryY=0.5;entryDx=0;entryDy=0;" edge="1" parent="TZSP8b-ihVTqNLgEtOzy-1" source="TZSP8b-ihVTqNLgEtOzy-31" target="TZSP8b-ihVTqNLgEtOzy-34">
          <mxGeometry relative="1" as="geometry" />
        </mxCell>
        <mxCell id="TZSP8b-ihVTqNLgEtOzy-31" value="infer:predict" style="rounded=1;whiteSpace=wrap;html=1;arcSize=50;fillColor=#bac8d3;strokeColor=#23445d;" name="infer:deduce" vertex="1" parent="TZSP8b-ihVTqNLgEtOzy-1">
          <mxGeometry x="1360" y="470" width="100" height="50" as="geometry" />
        </mxCell>
        <mxCell id="TZSP8b-ihVTqNLgEtOzy-32" style="edgeStyle=orthogonalEdgeStyle;rounded=0;orthogonalLoop=1;jettySize=auto;html=1;entryX=0.5;entryY=1;entryDx=0;entryDy=0;" edge="1" parent="TZSP8b-ihVTqNLgEtOzy-1" source="TZSP8b-ihVTqNLgEtOzy-33" target="TZSP8b-ihVTqNLgEtOzy-31">
          <mxGeometry relative="1" as="geometry" />
        </mxCell>
        <mxCell id="TZSP8b-ihVTqNLgEtOzy-33" value="data&#xa;Patient Data" style="rectangle;fillColor=#fff2cc;strokeColor=#d6b656;" name="data" vertex="1" parent="TZSP8b-ihVTqNLgEtOzy-1">
          <mxGeometry x="1360" y="600" width="100" height="50" as="geometry" />
        </mxCell>
        <mxCell id="TZSP8b-ihVTqNLgEtOzy-34" value="symbol&#xa;Likelihood KOA +&#xa;Certainty" style="rectangle;fillColor=#dae8fc;strokeColor=#6c8ebf;" name="symbol" vertex="1" parent="TZSP8b-ihVTqNLgEtOzy-1">
          <mxGeometry x="1540" y="470" width="100" height="50" as="geometry" />
        </mxCell>
      </root>
    </mxGraphModel>
  </diagram>
</mxfile>
